<svg xmlns="http://www.w3.org/2000/svg" viewBox="0 0 120 120" role="img" aria-labelledby="title desc">
  <title id="title">Nadia Rao profile image</title>
  <desc id="desc">Stylized circular profile image with a blue background.</desc>
  <rect width="120" height="120" rx="60" fill="#e7f0ff"/>
  <path d="M25 106c6-26 20-39 35-39s30 13 36 39" fill="#0f9f93"/>
  <circle cx="60" cy="54" r="21" fill="#c98261"/>
  <path d="M37 54c-2-21 9-35 24-35 18 0 27 15 23 36-6-8-13-15-24-23-7 10-14 17-23 22z" fill="#1a2630"/>
  <path d="M39 71c-10-19-3-47 22-52-5 16-3 33 8 50-10 11-21 12-30 2z" fill="#1a2630" opacity=".92"/>
  <circle cx="53" cy="55" r="2.4" fill="#10212b"/>
  <circle cx="67" cy="55" r="2.4" fill="#10212b"/>
  <path d="M53 66c5 4 10 4 15 0" fill="none" stroke="#10212b" stroke-width="3" stroke-linecap="round"/>
</svg>
